<svg width="104" height="24" viewBox="0 0 104 24" fill="none" xmlns="http://www.w3.org/2000/svg">
<path d="M91.8912 23.1H82.4412V0H96.4512C97.7312 0 98.9012 0.25 99.9612 0.749999C101.041 1.23 101.901 2.08 102.541 3.3C103.181 4.5 103.501 6.17 103.501 8.31C103.501 10.41 103.171 12.08 102.511 13.32C101.851 14.54 100.981 15.42 99.9012 15.96C98.8412 16.48 97.6912 16.74 96.4512 16.74H91.8912V23.1ZM94.2312 7.59H91.3512V9.21H94.3212C94.4812 9.21 94.6512 9.16 94.8312 9.06C95.0312 8.96 95.1312 8.75 95.1312 8.43C95.1312 8.09 95.0212 7.87 94.8012 7.77C94.5812 7.65 94.3912 7.59 94.2312 7.59Z" fill="#FF5A1F"/>
<path d="M58.5555 0H68.2755V15.06C68.2755 15.12 68.3055 15.27 68.3655 15.51C68.4455 15.75 68.6855 15.87 69.0855 15.87C69.4855 15.87 69.7155 15.75 69.7755 15.51C69.8555 15.27 69.8955 15.12 69.8955 15.06V0H79.6155V15.48C79.6155 16.58 79.4355 17.62 79.0755 18.6C78.7155 19.56 78.1255 20.42 77.3055 21.18C76.4855 21.92 75.3755 22.51 73.9755 22.95C72.5955 23.37 70.8755 23.58 68.8155 23.58C66.9955 23.58 65.4355 23.36 64.1355 22.92C62.8355 22.48 61.7755 21.88 60.9555 21.12C60.1355 20.36 59.5255 19.5 59.1255 18.54C58.7455 17.58 58.5555 16.58 58.5555 15.54V0Z" fill="#FF5A1F"/>
<path d="M44.4185 23.1H34.9685V0H48.9785C50.2585 0 51.4285 0.25 52.4885 0.749999C53.5685 1.23 54.4285 2.08 55.0685 3.3C55.7085 4.5 56.0285 6.17 56.0285 8.31C56.0285 10.41 55.6985 12.08 55.0385 13.32C54.3785 14.54 53.5085 15.42 52.4285 15.96C51.3685 16.48 50.2185 16.74 48.9785 16.74H44.4185V23.1ZM46.7585 7.59H43.8785V9.21H46.8485C47.0085 9.21 47.1785 9.16 47.3585 9.06C47.5585 8.96 47.6585 8.75 47.6585 8.43C47.6585 8.09 47.5485 7.87 47.3285 7.77C47.1085 7.65 46.9185 7.59 46.7585 7.59Z" fill="#FF5A1F"/>
<path d="M31.2503 14.9982H23.8894C23.8705 14.5122 23.8234 13.802 23.7479 12.8676C23.6724 11.9144 23.5874 10.8491 23.4931 9.67171C23.4176 8.49429 23.3421 7.29817 23.2666 6.08337C23.21 4.84987 23.1628 3.70048 23.125 2.63519C23.0873 1.5699 23.0778 0.700849 23.0967 0.0280337L23.125 0H32.0146L31.9863 0.0280337C32.0241 0.700849 32.0241 1.5699 31.9863 2.63519C31.9486 3.70048 31.892 4.84987 31.8165 6.08337C31.7598 7.29817 31.6938 8.50363 31.6183 9.69975C31.5428 10.8772 31.4673 11.9331 31.3918 12.8676C31.3352 13.802 31.288 14.5122 31.2503 14.9982ZM31.2503 18.2781V20.5209C31.2503 21.231 30.9577 21.8384 30.3726 22.3431C29.7875 22.8477 28.8533 23.1 27.5698 23.1C26.3053 23.1 25.371 22.8383 24.7671 22.315C24.1631 21.7917 23.8611 21.175 23.8611 20.4648V18.2501C23.8611 17.5399 24.1631 16.9232 24.7671 16.3999C25.371 15.8766 26.3053 15.6149 27.5698 15.6149C28.8533 15.6149 29.7875 15.8672 30.3726 16.3718C30.9577 16.8764 31.2503 17.5119 31.2503 18.2781Z" fill="#FF5A1F"/>
<path d="M19.98 6.21L12.93 15H20.25V23.1H0V16.89L7.05 8.1H0.54V0H19.98V6.21Z" fill="#FF5A1F"/>
</svg>
